<svg id="svg" version="1.1" xmlns="http://www.w3.org/2000/svg" xmlns:xlink="http://www.w3.org/1999/xlink" width="400" height="400" viewBox="0, 0, 400,400"><g id="svgg"><path id="path0" d="M205.600 200.042 L 205.600 381.284 207.100 381.075 C 207.925 380.959,209.365 380.670,210.300 380.433 C 213.437 379.634,215.389 379.159,217.000 378.800 C 218.579 378.448,220.568 377.964,223.500 377.218 C 224.325 377.008,225.765 376.648,226.700 376.418 C 227.635 376.188,229.075 375.828,229.900 375.618 C 230.725 375.408,231.940 375.129,232.600 374.999 C 233.748 374.772,235.010 374.465,238.300 373.610 C 240.532 373.031,252.473 370.153,256.600 369.200 C 258.580 368.743,260.875 368.189,261.700 367.969 L 263.200 367.569 263.200 300.380 L 263.200 233.191 264.050 231.384 C 265.888 227.474,268.207 226.548,277.000 226.213 C 280.300 226.088,286.600 225.807,291.000 225.590 C 295.400 225.373,302.690 225.021,307.200 224.807 C 311.710 224.594,318.910 224.241,323.200 224.023 C 327.490 223.805,333.655 223.505,336.900 223.355 L 342.800 223.082 342.800 137.408 L 342.800 51.734 334.900 49.844 C 326.462 47.825,326.148 47.748,324.000 47.167 C 322.588 46.785,320.345 46.252,317.400 45.599 C 315.470 45.171,313.464 44.688,310.000 43.820 C 305.656 42.731,304.254 42.362,302.972 41.973 C 302.296 41.768,301.409 41.600,301.000 41.600 C 300.591 41.600,299.704 41.432,299.028 41.227 C 297.750 40.839,297.407 40.751,289.700 38.825 C 288.875 38.619,287.300 38.248,286.200 38.000 C 285.100 37.752,283.480 37.366,282.600 37.142 C 278.244 36.032,278.440 36.079,264.600 32.795 C 254.488 30.395,249.384 29.174,248.000 28.822 C 247.230 28.626,245.835 28.271,244.900 28.033 C 243.965 27.795,242.435 27.405,241.500 27.167 C 239.808 26.736,237.868 26.249,235.200 25.586 C 234.430 25.395,233.260 25.131,232.600 25.001 C 231.940 24.871,230.770 24.600,230.000 24.400 C 227.932 23.863,225.213 23.204,223.400 22.800 C 222.520 22.604,221.080 22.263,220.200 22.041 C 219.320 21.820,217.790 21.458,216.800 21.236 C 215.810 21.015,213.222 20.376,211.049 19.817 C 208.876 19.258,206.761 18.800,206.349 18.800 C 205.618 18.800,205.600 23.205,205.600 200.042 M277.200 87.978 C 278.630 88.181,281.150 88.548,282.800 88.793 C 284.450 89.038,287.060 89.409,288.600 89.617 C 297.113 90.768,298.682 91.537,300.665 95.523 C 301.725 97.653,302.017 165.737,300.981 168.859 C 299.458 173.444,296.690 174.552,287.600 174.217 C 270.136 173.573,268.330 173.339,266.234 171.456 C 262.957 168.511,263.200 171.799,263.200 130.426 L 263.200 93.676 264.100 91.979 C 266.417 87.612,269.016 86.818,277.200 87.978 " stroke="none" fill="#fbf304" fill-rule="evenodd"></path><path id="path1" d="M191.200 0.265 C 190.430 0.371,189.629 0.624,189.420 0.829 C 189.211 1.033,188.457 1.200,187.744 1.200 C 187.031 1.200,186.336 1.380,186.200 1.600 C 186.064 1.820,185.344 2.000,184.600 2.000 C 183.856 2.000,183.136 2.180,183.000 2.400 C 182.864 2.620,182.054 2.800,181.200 2.800 C 180.346 2.800,179.536 2.980,179.400 3.200 C 179.264 3.420,178.533 3.600,177.776 3.600 C 177.019 3.600,176.400 3.780,176.400 4.000 C 176.400 4.220,175.680 4.400,174.800 4.400 C 173.920 4.400,173.200 4.580,173.200 4.800 C 173.200 5.020,172.480 5.200,171.600 5.200 C 170.720 5.200,170.000 5.380,170.000 5.600 C 170.000 5.820,169.280 6.000,168.400 6.000 C 167.520 6.000,166.800 6.180,166.800 6.400 C 166.800 6.620,166.080 6.800,165.200 6.800 C 164.320 6.800,163.600 6.980,163.600 7.200 C 163.600 7.420,162.981 7.600,162.224 7.600 C 161.467 7.600,160.736 7.780,160.600 8.000 C 160.464 8.220,159.654 8.400,158.800 8.400 C 157.946 8.400,157.136 8.580,157.000 8.800 C 156.864 9.020,156.144 9.200,155.400 9.200 C 154.656 9.200,153.949 9.359,153.829 9.553 C 153.709 9.747,152.394 10.035,150.906 10.192 C 149.418 10.350,148.020 10.618,147.800 10.789 C 147.580 10.960,146.860 11.201,146.200 11.325 C 145.540 11.449,144.190 11.758,143.200 12.011 C 142.210 12.264,140.635 12.564,139.700 12.676 C 138.765 12.789,138.000 13.042,138.000 13.240 C 138.000 13.438,137.381 13.600,136.624 13.600 C 135.867 13.600,135.136 13.780,135.000 14.000 C 134.864 14.220,134.043 14.400,133.176 14.400 C 132.309 14.400,131.600 14.580,131.600 14.800 C 131.600 15.020,130.981 15.200,130.224 15.200 C 129.467 15.200,128.748 15.361,128.626 15.558 C 128.505 15.755,127.729 16.010,126.903 16.125 C 126.076 16.240,124.590 16.544,123.600 16.800 C 122.610 17.056,121.124 17.360,120.297 17.475 C 119.471 17.590,118.695 17.845,118.574 18.042 C 118.452 18.239,117.744 18.400,117.000 18.400 C 116.256 18.400,115.536 18.580,115.400 18.800 C 115.264 19.020,114.533 19.200,113.776 19.200 C 113.019 19.200,112.400 19.380,112.400 19.600 C 112.400 19.820,111.680 20.000,110.800 20.000 C 109.920 20.000,109.200 20.180,109.200 20.400 C 109.200 20.620,108.480 20.800,107.600 20.800 C 106.720 20.800,106.000 20.980,106.000 21.200 C 106.000 21.420,105.280 21.600,104.400 21.600 C 103.520 21.600,102.800 21.780,102.800 22.000 C 102.800 22.220,102.080 22.400,101.200 22.400 C 100.320 22.400,99.600 22.580,99.600 22.800 C 99.600 23.020,98.880 23.200,98.000 23.200 C 97.120 23.200,96.400 23.380,96.400 23.600 C 96.400 23.820,95.691 24.000,94.824 24.000 C 93.957 24.000,93.136 24.180,93.000 24.400 C 92.864 24.620,92.144 24.800,91.400 24.800 C 90.656 24.800,89.936 24.980,89.800 25.200 C 89.664 25.420,88.944 25.600,88.200 25.600 C 87.456 25.600,86.736 25.780,86.600 26.000 C 86.464 26.220,85.643 26.400,84.776 26.400 C 83.909 26.400,83.200 26.562,83.200 26.759 C 83.200 26.957,81.939 27.245,80.398 27.400 C 78.858 27.555,77.497 27.843,77.375 28.041 C 77.253 28.238,76.544 28.400,75.800 28.400 C 75.056 28.400,74.336 28.580,74.200 28.800 C 74.064 29.020,73.243 29.200,72.376 29.200 C 71.509 29.200,70.800 29.380,70.800 29.600 C 70.800 29.820,70.080 30.000,69.200 30.000 C 68.320 30.000,67.600 30.180,67.600 30.400 C 67.600 30.620,66.981 30.800,66.224 30.800 C 65.467 30.800,64.736 30.980,64.600 31.200 C 64.464 31.420,63.654 31.600,62.800 31.600 C 61.946 31.600,61.148 31.760,61.027 31.956 C 60.906 32.151,60.221 32.408,59.504 32.527 C 58.787 32.645,57.390 32.950,56.400 33.204 C 55.410 33.457,53.924 33.760,53.097 33.875 C 52.271 33.990,51.495 34.245,51.374 34.442 C 51.252 34.639,50.544 34.800,49.800 34.800 C 49.056 34.800,48.336 34.980,48.200 35.200 C 48.064 35.420,47.519 35.600,46.989 35.600 C 45.490 35.600,42.016 37.735,41.991 38.671 C 41.986 38.852,41.630 39.450,41.200 40.000 C 39.967 41.577,39.967 358.423,41.200 360.000 C 41.630 360.550,41.986 361.148,41.991 361.329 C 42.016 362.265,45.490 364.400,46.989 364.400 C 47.519 364.400,48.064 364.580,48.200 364.800 C 48.336 365.020,49.056 365.200,49.800 365.200 C 50.544 365.200,51.264 365.380,51.400 365.600 C 51.536 365.820,52.256 366.000,53.000 366.000 C 53.744 366.000,54.452 366.161,54.574 366.358 C 54.695 366.555,55.471 366.818,56.297 366.942 C 59.807 367.472,60.820 367.708,61.027 368.044 C 61.148 368.240,61.957 368.400,62.824 368.400 C 63.691 368.400,64.400 368.580,64.400 368.800 C 64.400 369.020,65.120 369.200,66.000 369.200 C 66.880 369.200,67.600 369.380,67.600 369.600 C 67.600 369.820,68.320 370.000,69.200 370.000 C 70.080 370.000,70.800 370.180,70.800 370.400 C 70.800 370.620,71.520 370.800,72.400 370.800 C 73.280 370.800,74.000 370.980,74.000 371.200 C 74.000 371.420,74.720 371.600,75.600 371.600 C 76.480 371.600,77.200 371.761,77.200 371.958 C 77.200 372.155,77.875 372.410,78.700 372.525 C 79.525 372.641,80.920 372.921,81.800 373.149 C 85.944 374.222,87.201 374.493,89.900 374.897 C 91.495 375.135,92.800 375.481,92.800 375.665 C 92.800 375.849,93.610 376.000,94.600 376.000 C 95.590 376.000,96.400 376.180,96.400 376.400 C 96.400 376.620,97.120 376.800,98.000 376.800 C 98.880 376.800,99.600 376.980,99.600 377.200 C 99.600 377.420,100.320 377.600,101.200 377.600 C 102.080 377.600,102.800 377.780,102.800 378.000 C 102.800 378.220,103.520 378.400,104.400 378.400 C 105.280 378.400,106.000 378.580,106.000 378.800 C 106.000 379.020,106.720 379.200,107.600 379.200 C 108.480 379.200,109.200 379.380,109.200 379.600 C 109.200 379.820,109.920 380.000,110.800 380.000 C 111.680 380.000,112.400 380.180,112.400 380.400 C 112.400 380.620,113.019 380.800,113.776 380.800 C 114.533 380.800,115.264 380.980,115.400 381.200 C 115.536 381.420,116.256 381.600,117.000 381.600 C 117.744 381.600,118.464 381.780,118.600 382.000 C 118.736 382.220,119.456 382.400,120.200 382.400 C 120.944 382.400,121.652 382.561,121.774 382.758 C 121.895 382.955,122.716 383.225,123.597 383.358 C 124.479 383.491,125.921 383.709,126.803 383.842 C 127.684 383.975,128.505 384.245,128.626 384.442 C 128.748 384.639,129.467 384.800,130.224 384.800 C 130.981 384.800,131.600 384.980,131.600 385.200 C 131.600 385.420,132.320 385.600,133.200 385.600 C 134.080 385.600,134.800 385.780,134.800 386.000 C 134.800 386.220,135.520 386.400,136.400 386.400 C 137.280 386.400,138.000 386.580,138.000 386.800 C 138.000 387.020,138.720 387.200,139.600 387.200 C 140.480 387.200,141.200 387.380,141.200 387.600 C 141.200 387.820,141.909 388.000,142.776 388.000 C 143.643 388.000,144.464 388.180,144.600 388.400 C 144.736 388.620,145.456 388.800,146.200 388.800 C 146.944 388.800,147.652 388.960,147.773 389.156 C 147.979 389.490,148.568 389.632,152.300 390.247 C 153.125 390.383,153.980 390.638,154.200 390.813 C 154.420 390.989,155.905 391.260,157.500 391.418 C 159.095 391.575,160.400 391.860,160.400 392.052 C 160.400 392.243,161.120 392.400,162.000 392.400 C 162.880 392.400,163.600 392.580,163.600 392.800 C 163.600 393.020,164.320 393.200,165.200 393.200 C 166.080 393.200,166.800 393.380,166.800 393.600 C 166.800 393.820,167.520 394.000,168.400 394.000 C 169.280 394.000,170.000 394.180,170.000 394.400 C 170.000 394.620,170.720 394.800,171.600 394.800 C 172.480 394.800,173.200 394.980,173.200 395.200 C 173.200 395.420,173.920 395.600,174.800 395.600 C 175.680 395.600,176.400 395.780,176.400 396.000 C 176.400 396.220,177.019 396.400,177.776 396.400 C 178.533 396.400,179.264 396.580,179.400 396.800 C 179.536 397.020,180.256 397.200,181.000 397.200 C 181.744 397.200,182.464 397.380,182.600 397.600 C 182.736 397.820,183.456 398.000,184.200 398.000 C 184.944 398.000,185.664 398.180,185.800 398.400 C 185.936 398.620,186.721 398.800,187.544 398.800 C 188.367 398.800,189.265 399.025,189.540 399.300 C 189.906 399.665,192.104 399.800,197.687 399.800 C 203.449 399.800,205.375 399.677,205.500 399.300 C 205.596 399.013,206.336 398.800,207.233 398.800 C 208.095 398.800,208.800 398.620,208.800 398.400 C 208.800 398.180,209.520 398.000,210.400 398.000 C 211.280 398.000,212.000 397.820,212.000 397.600 C 212.000 397.380,212.720 397.200,213.600 397.200 C 214.480 397.200,215.200 397.020,215.200 396.800 C 215.200 396.580,215.920 396.400,216.800 396.400 C 217.680 396.400,218.400 396.220,218.400 396.000 C 218.400 395.780,219.120 395.600,220.000 395.600 C 220.880 395.600,221.600 395.420,221.600 395.200 C 221.600 394.980,222.320 394.800,223.200 394.800 C 224.080 394.800,224.800 394.620,224.800 394.400 C 224.800 394.180,225.509 394.000,226.376 394.000 C 227.243 394.000,228.064 393.820,228.200 393.600 C 228.336 393.380,229.157 393.200,230.024 393.200 C 230.891 393.200,231.600 393.020,231.600 392.800 C 231.600 392.580,232.320 392.400,233.200 392.400 C 234.080 392.400,234.800 392.243,234.800 392.052 C 234.800 391.860,236.056 391.580,237.591 391.428 C 239.126 391.277,240.486 390.984,240.614 390.777 C 240.742 390.570,241.456 390.400,242.200 390.400 C 242.944 390.400,243.664 390.220,243.800 390.000 C 243.936 389.780,244.757 389.600,245.624 389.600 C 246.491 389.600,247.200 389.420,247.200 389.200 C 247.200 388.980,247.920 388.800,248.800 388.800 C 249.680 388.800,250.400 388.620,250.400 388.400 C 250.400 388.180,251.109 388.000,251.976 388.000 C 252.843 388.000,253.664 387.820,253.800 387.600 C 253.936 387.380,254.656 387.200,255.400 387.200 C 256.144 387.200,256.864 387.020,257.000 386.800 C 257.136 386.580,257.957 386.400,258.824 386.400 C 259.691 386.400,260.400 386.220,260.400 386.000 C 260.400 385.780,261.120 385.600,262.000 385.600 C 262.880 385.600,263.600 385.420,263.600 385.200 C 263.600 384.980,264.320 384.800,265.200 384.800 C 266.080 384.800,266.800 384.620,266.800 384.400 C 266.800 384.180,267.520 384.000,268.400 384.000 C 269.280 384.000,270.000 383.820,270.000 383.600 C 270.000 383.380,270.720 383.200,271.600 383.200 C 272.480 383.200,273.200 383.020,273.200 382.800 C 273.200 382.580,273.650 382.400,274.200 382.400 C 274.750 382.400,275.200 382.220,275.200 382.000 C 275.200 381.780,275.476 381.600,275.813 381.600 C 276.609 381.600,279.200 379.009,279.200 378.213 C 279.200 377.876,279.380 377.600,279.600 377.600 C 279.865 377.600,280.000 354.933,280.000 310.400 L 280.000 243.200 282.576 243.200 C 283.993 243.200,285.264 243.020,285.400 242.800 C 285.551 242.555,288.715 242.400,293.557 242.400 C 297.907 242.400,301.601 242.265,301.765 242.100 C 301.929 241.935,309.114 241.570,317.732 241.288 C 356.459 240.023,356.629 239.999,358.800 235.506 C 359.710 233.622,360.106 42.000,359.200 42.000 C 358.980 42.000,358.800 41.655,358.800 41.233 C 358.800 40.199,355.866 37.200,354.855 37.200 C 354.411 37.200,353.936 37.020,353.800 36.800 C 353.664 36.580,352.944 36.400,352.200 36.400 C 351.456 36.400,350.736 36.220,350.600 36.000 C 350.464 35.780,349.643 35.600,348.776 35.600 C 347.909 35.600,347.200 35.420,347.200 35.200 C 347.200 34.980,346.480 34.800,345.600 34.800 C 344.720 34.800,344.000 34.620,344.000 34.400 C 344.000 34.180,343.381 34.000,342.624 34.000 C 341.867 34.000,341.136 33.820,341.000 33.600 C 340.864 33.380,340.144 33.200,339.400 33.200 C 338.656 33.200,337.936 33.020,337.800 32.800 C 337.664 32.580,336.944 32.400,336.200 32.400 C 335.456 32.400,334.748 32.239,334.626 32.042 C 334.505 31.845,333.729 31.590,332.903 31.475 C 332.076 31.360,330.590 31.056,329.600 30.800 C 328.610 30.544,327.124 30.240,326.297 30.125 C 325.471 30.010,324.695 29.755,324.574 29.558 C 324.452 29.361,323.744 29.200,323.000 29.200 C 322.256 29.200,321.536 29.020,321.400 28.800 C 321.264 28.580,320.544 28.400,319.800 28.400 C 319.056 28.400,318.345 28.235,318.221 28.034 C 318.096 27.833,316.646 27.541,314.997 27.387 C 313.349 27.232,312.000 26.947,312.000 26.753 C 312.000 26.559,311.280 26.400,310.400 26.400 C 309.520 26.400,308.800 26.220,308.800 26.000 C 308.800 25.780,308.080 25.600,307.200 25.600 C 306.320 25.600,305.600 25.420,305.600 25.200 C 305.600 24.980,304.880 24.800,304.000 24.800 C 303.120 24.800,302.400 24.620,302.400 24.400 C 302.400 24.180,301.590 24.000,300.600 24.000 C 299.610 24.000,298.800 23.820,298.800 23.600 C 298.800 23.380,298.080 23.200,297.200 23.200 C 296.320 23.200,295.600 23.020,295.600 22.800 C 295.600 22.580,294.880 22.400,294.000 22.400 C 293.120 22.400,292.400 22.220,292.400 22.000 C 292.400 21.780,291.781 21.600,291.024 21.600 C 290.267 21.600,289.536 21.420,289.400 21.200 C 289.264 20.980,288.544 20.800,287.800 20.800 C 287.056 20.800,286.336 20.620,286.200 20.400 C 286.064 20.180,285.344 20.000,284.600 20.000 C 283.856 20.000,283.136 19.820,283.000 19.600 C 282.864 19.380,282.144 19.200,281.400 19.200 C 280.656 19.200,279.936 19.020,279.800 18.800 C 279.664 18.580,278.854 18.400,278.000 18.400 C 277.146 18.400,276.336 18.220,276.200 18.000 C 276.064 17.780,275.333 17.600,274.576 17.600 C 273.819 17.600,273.200 17.420,273.200 17.200 C 273.200 16.980,272.480 16.800,271.600 16.800 C 270.720 16.800,270.000 16.620,270.000 16.400 C 270.000 16.180,269.280 16.000,268.400 16.000 C 267.520 16.000,266.800 15.820,266.800 15.600 C 266.800 15.380,266.080 15.200,265.200 15.200 C 264.320 15.200,263.600 15.020,263.600 14.800 C 263.600 14.580,262.891 14.400,262.024 14.400 C 261.157 14.400,260.336 14.220,260.200 14.000 C 260.064 13.780,259.344 13.600,258.600 13.600 C 257.856 13.600,257.148 13.439,257.026 13.242 C 256.905 13.045,256.039 12.771,255.103 12.633 C 250.945 12.018,250.382 11.895,250.174 11.558 C 250.052 11.361,249.333 11.200,248.576 11.200 C 247.819 11.200,247.200 11.041,247.200 10.847 C 247.200 10.653,245.851 10.368,244.203 10.213 C 242.554 10.059,241.104 9.767,240.979 9.566 C 240.855 9.365,240.133 9.200,239.376 9.200 C 238.619 9.200,238.000 9.020,238.000 8.800 C 238.000 8.580,237.291 8.400,236.424 8.400 C 235.557 8.400,234.736 8.220,234.600 8.000 C 234.464 7.780,233.744 7.600,233.000 7.600 C 232.256 7.600,231.536 7.420,231.400 7.200 C 231.264 6.980,230.454 6.800,229.600 6.800 C 228.746 6.800,227.936 6.620,227.800 6.400 C 227.664 6.180,226.933 6.000,226.176 6.000 C 225.419 6.000,224.800 5.820,224.800 5.600 C 224.800 5.380,224.080 5.200,223.200 5.200 C 222.320 5.200,221.600 5.020,221.600 4.800 C 221.600 4.580,220.880 4.400,220.000 4.400 C 219.120 4.400,218.400 4.220,218.400 4.000 C 218.400 3.780,217.680 3.600,216.800 3.600 C 215.920 3.600,215.200 3.420,215.200 3.200 C 215.200 2.980,214.480 2.800,213.600 2.800 C 212.720 2.800,212.000 2.620,212.000 2.400 C 212.000 2.180,211.291 2.000,210.424 2.000 C 209.557 2.000,208.736 1.820,208.600 1.600 C 208.464 1.380,207.769 1.200,207.056 1.200 C 206.343 1.200,205.558 0.998,205.312 0.752 C 204.845 0.285,193.831 -0.095,191.200 0.265 M189.200 200.224 C 189.200 300.201,189.136 382.000,189.059 382.000 C 188.981 382.000,186.686 381.451,183.959 380.780 C 170.089 377.368,157.438 374.283,154.400 373.571 C 152.530 373.132,150.460 372.618,149.800 372.426 C 149.140 372.235,146.980 371.693,145.000 371.221 C 143.020 370.748,140.725 370.191,139.900 369.981 C 139.075 369.771,137.725 369.429,136.900 369.219 C 136.075 369.009,133.870 368.473,132.000 368.028 C 130.130 367.583,124.190 366.147,118.800 364.838 C 113.410 363.530,107.020 361.989,104.600 361.415 C 102.180 360.841,98.850 360.026,97.200 359.604 C 95.550 359.181,91.860 358.280,89.000 357.601 C 83.836 356.376,81.702 355.846,79.400 355.219 C 78.740 355.039,77.390 354.700,76.400 354.465 C 75.410 354.230,73.430 353.744,72.000 353.384 C 70.570 353.024,68.680 352.571,67.800 352.376 C 66.920 352.182,64.130 351.505,61.600 350.872 L 57.000 349.721 57.000 200.007 L 57.000 50.293 62.600 48.934 C 65.680 48.187,68.875 47.401,69.700 47.188 C 73.312 46.254,74.486 45.965,79.400 44.799 C 82.260 44.120,85.950 43.213,87.600 42.784 C 89.250 42.354,94.020 41.183,98.200 40.180 C 102.380 39.178,108.410 37.728,111.600 36.959 C 114.790 36.189,120.010 34.933,123.200 34.167 C 129.080 32.756,130.527 32.399,133.400 31.648 C 134.280 31.418,138.060 30.497,141.800 29.600 C 145.540 28.703,149.230 27.801,150.000 27.594 C 151.354 27.231,157.410 25.762,177.200 20.997 C 182.370 19.752,187.050 18.593,187.600 18.421 C 188.150 18.249,188.735 18.184,188.900 18.278 C 189.065 18.371,189.200 100.247,189.200 200.224 M207.954 18.393 C 208.749 18.609,211.380 19.249,213.800 19.815 C 218.973 21.025,227.605 23.084,229.600 23.583 C 230.370 23.776,231.765 24.129,232.700 24.367 C 233.635 24.605,235.165 24.992,236.100 25.227 C 237.035 25.462,238.353 25.822,239.028 26.027 C 239.704 26.232,240.728 26.400,241.305 26.400 C 241.881 26.400,242.464 26.580,242.600 26.800 C 242.736 27.020,243.319 27.200,243.895 27.200 C 244.472 27.200,245.496 27.368,246.172 27.573 C 247.903 28.099,249.849 28.589,255.800 30.000 C 258.660 30.678,261.720 31.420,262.600 31.649 C 265.257 32.341,266.674 32.686,274.800 34.616 C 288.560 37.884,295.762 39.611,297.300 40.010 C 298.125 40.225,299.565 40.592,300.500 40.827 C 301.435 41.062,302.753 41.422,303.428 41.627 C 304.104 41.832,305.128 42.000,305.705 42.000 C 306.281 42.000,306.852 42.161,306.974 42.358 C 307.095 42.555,307.871 42.810,308.697 42.925 C 309.524 43.040,310.965 43.330,311.900 43.567 C 312.835 43.805,314.365 44.195,315.300 44.433 C 316.235 44.670,317.676 44.960,318.503 45.075 C 319.329 45.190,320.105 45.445,320.226 45.642 C 320.348 45.839,320.919 46.000,321.495 46.000 C 322.072 46.000,323.096 46.168,323.772 46.373 C 325.841 47.001,335.058 49.260,340.600 50.497 C 341.700 50.743,342.825 51.216,343.100 51.548 C 343.660 52.225,343.852 222.205,343.294 223.039 C 342.897 223.632,339.417 223.976,329.200 224.431 C 324.470 224.641,316.820 224.997,312.200 225.222 C 292.906 226.160,288.173 226.384,279.800 226.755 C 268.919 227.238,268.108 227.417,265.776 229.855 C 263.527 232.206,263.600 229.793,263.600 301.607 C 263.600 342.239,263.455 368.042,263.227 368.183 C 263.021 368.310,261.986 368.600,260.927 368.827 C 259.867 369.053,258.280 369.419,257.400 369.638 C 254.535 370.352,253.034 370.714,251.000 371.180 C 249.029 371.632,247.345 372.044,244.200 372.843 C 243.320 373.066,242.060 373.340,241.400 373.452 C 240.740 373.563,239.840 373.800,239.400 373.978 C 238.960 374.156,237.610 374.512,236.400 374.768 C 234.344 375.203,233.591 375.385,229.700 376.386 C 225.264 377.527,219.605 378.921,218.200 379.218 C 216.439 379.590,215.290 379.854,209.469 381.224 C 206.106 382.015,205.486 382.066,205.176 381.574 C 204.773 380.938,204.641 19.680,205.043 18.633 C 205.324 17.899,205.947 17.848,207.954 18.393 M268.856 88.288 C 267.128 88.616,264.635 91.568,264.091 93.931 C 263.390 96.971,263.385 163.809,264.086 166.843 C 265.229 171.796,267.334 172.694,279.000 173.201 C 283.620 173.402,288.608 173.689,290.084 173.840 C 294.840 174.324,298.567 172.678,300.035 169.446 C 300.945 167.443,301.237 99.033,300.348 96.360 C 298.983 92.260,296.623 91.237,285.200 89.794 C 284.210 89.669,282.140 89.382,280.600 89.156 C 272.682 87.995,271.041 87.874,268.856 88.288 M285.200 132.800 L 285.200 158.000 282.614 158.000 C 280.467 158.000,279.958 157.869,279.614 157.226 C 278.961 156.006,279.049 109.024,279.705 108.479 C 280.154 108.106,281.421 107.882,284.300 107.667 L 285.200 107.600 285.200 132.800 " stroke="none" fill="#050606" fill-rule="evenodd"></path><path id="path2" d="M187.600 18.421 C 187.050 18.593,182.370 19.752,177.200 20.997 C 157.410 25.762,151.354 27.231,150.000 27.594 C 149.230 27.801,145.540 28.703,141.800 29.600 C 138.060 30.497,134.280 31.418,133.400 31.648 C 130.527 32.399,129.080 32.756,123.200 34.167 C 120.010 34.933,114.790 36.189,111.600 36.959 C 108.410 37.728,102.380 39.178,98.200 40.180 C 94.020 41.183,89.250 42.354,87.600 42.784 C 85.950 43.213,82.260 44.120,79.400 44.799 C 74.486 45.965,73.312 46.254,69.700 47.188 C 68.875 47.401,65.680 48.187,62.600 48.934 L 57.000 50.293 57.000 200.007 L 57.000 349.721 61.600 350.872 C 64.130 351.505,66.920 352.182,67.800 352.376 C 68.680 352.571,70.570 353.024,72.000 353.384 C 73.430 353.744,75.410 354.230,76.400 354.465 C 77.390 354.700,78.740 355.039,79.400 355.219 C 81.702 355.846,83.836 356.376,89.000 357.601 C 91.860 358.280,95.550 359.181,97.200 359.604 C 98.850 360.026,102.180 360.841,104.600 361.415 C 107.020 361.989,113.410 363.530,118.800 364.838 C 124.190 366.147,130.130 367.583,132.000 368.028 C 133.870 368.473,136.075 369.009,136.900 369.219 C 137.725 369.429,139.075 369.771,139.900 369.981 C 140.725 370.191,143.020 370.748,145.000 371.221 C 146.980 371.693,149.140 372.235,149.800 372.426 C 150.460 372.618,152.530 373.132,154.400 373.571 C 157.438 374.283,170.089 377.368,183.959 380.780 C 186.686 381.451,188.981 382.000,189.059 382.000 C 189.347 382.000,189.189 18.441,188.900 18.278 C 188.735 18.184,188.150 18.249,187.600 18.421 M281.805 107.897 C 279.026 108.180,279.200 106.526,279.200 132.675 C 279.200 159.816,278.955 158.000,282.614 158.000 L 285.200 158.000 285.200 132.800 L 285.200 107.600 284.300 107.667 C 283.805 107.704,282.682 107.808,281.805 107.897 " stroke="none" fill="#0470a7" fill-rule="evenodd"></path><path id="path3" d="M205.043 18.633 C 204.692 19.547,204.755 380.910,205.106 381.462 C 205.268 381.716,205.400 300.176,205.400 200.262 L 205.400 18.600 207.000 18.687 C 208.227 18.754,208.414 18.691,207.800 18.415 C 206.535 17.847,205.307 17.944,205.043 18.633 M209.640 18.974 C 209.970 19.303,214.285 20.406,215.120 20.374 C 215.494 20.359,214.900 20.112,213.800 19.825 C 210.344 18.922,209.394 18.728,209.640 18.974 M220.600 21.805 C 222.580 22.330,224.560 22.756,225.000 22.753 C 225.440 22.750,224.180 22.319,222.200 21.795 C 220.220 21.270,218.240 20.844,217.800 20.847 C 217.360 20.850,218.620 21.281,220.600 21.805 M227.233 23.343 C 227.325 23.421,228.030 23.601,228.800 23.742 C 229.785 23.923,230.022 23.882,229.600 23.606 C 229.058 23.250,226.837 23.003,227.233 23.343 M230.433 24.143 C 230.525 24.221,231.230 24.401,232.000 24.542 C 232.985 24.723,233.222 24.682,232.800 24.406 C 232.258 24.050,230.037 23.803,230.433 24.143 M234.033 24.944 C 234.125 25.023,234.740 25.208,235.400 25.356 C 236.276 25.552,236.438 25.515,236.000 25.218 C 235.460 24.853,233.632 24.598,234.033 24.944 M237.233 25.744 C 237.325 25.823,237.940 26.008,238.600 26.156 C 239.476 26.352,239.638 26.315,239.200 26.018 C 238.660 25.653,236.832 25.398,237.233 25.744 M240.433 26.544 C 240.905 26.950,242.843 27.193,242.610 26.816 C 242.468 26.587,241.883 26.400,241.310 26.400 C 240.736 26.400,240.342 26.465,240.433 26.544 M244.033 27.344 C 244.125 27.423,244.740 27.608,245.400 27.756 C 246.276 27.952,246.438 27.915,246.000 27.618 C 245.460 27.253,243.632 26.998,244.033 27.344 M247.800 28.400 C 248.996 28.914,249.995 28.914,249.200 28.400 C 248.870 28.187,248.240 28.022,247.800 28.034 L 247.000 28.056 247.800 28.400 M251.200 29.200 C 252.568 29.638,253.619 29.638,252.600 29.200 C 252.160 29.011,251.440 28.862,251.000 28.868 C 250.357 28.877,250.396 28.943,251.200 29.200 M254.600 30.000 C 255.040 30.189,255.670 30.344,256.000 30.344 C 256.378 30.344,256.304 30.217,255.800 30.000 C 255.360 29.811,254.730 29.656,254.400 29.656 C 254.022 29.656,254.096 29.783,254.600 30.000 M257.800 30.800 C 258.240 30.989,258.870 31.144,259.200 31.144 C 259.578 31.144,259.504 31.017,259.000 30.800 C 258.560 30.611,257.930 30.456,257.600 30.456 C 257.222 30.456,257.296 30.583,257.800 30.800 M267.800 33.200 C 268.240 33.389,268.960 33.538,269.400 33.532 C 270.043 33.523,270.004 33.457,269.200 33.200 C 267.832 32.762,266.781 32.762,267.800 33.200 M271.000 34.000 C 271.440 34.189,272.160 34.338,272.600 34.332 C 273.243 34.323,273.204 34.257,272.400 34.000 C 271.032 33.562,269.981 33.562,271.000 34.000 M274.400 34.782 C 274.730 35.005,275.345 35.191,275.767 35.194 C 276.790 35.202,276.471 34.973,275.000 34.644 C 274.124 34.448,273.962 34.485,274.400 34.782 M277.800 35.600 C 278.240 35.789,278.960 35.938,279.400 35.932 C 280.043 35.923,280.004 35.857,279.200 35.600 C 277.832 35.162,276.781 35.162,277.800 35.600 M284.200 37.200 C 284.640 37.389,285.360 37.538,285.800 37.532 C 286.443 37.523,286.404 37.457,285.600 37.200 C 284.232 36.762,283.181 36.762,284.200 37.200 M287.400 37.950 C 287.840 38.135,288.920 38.399,289.800 38.537 C 290.815 38.695,291.108 38.664,290.600 38.450 C 290.160 38.265,289.080 38.001,288.200 37.863 C 287.185 37.705,286.892 37.736,287.400 37.950 M294.833 39.743 C 294.925 39.821,295.630 40.001,296.400 40.142 C 297.385 40.323,297.622 40.282,297.200 40.006 C 296.658 39.650,294.437 39.403,294.833 39.743 M298.033 40.543 C 298.125 40.621,298.830 40.801,299.600 40.942 C 300.585 41.123,300.822 41.082,300.400 40.806 C 299.858 40.450,297.637 40.203,298.033 40.543 M301.233 41.343 C 301.325 41.421,302.030 41.601,302.800 41.742 C 303.785 41.923,304.022 41.882,303.600 41.606 C 303.058 41.250,300.837 41.003,301.233 41.343 M304.833 42.144 C 305.305 42.550,307.243 42.793,307.010 42.416 C 306.868 42.187,306.283 42.000,305.710 42.000 C 305.136 42.000,304.742 42.065,304.833 42.144 M308.433 42.944 C 308.525 43.023,309.140 43.208,309.800 43.356 C 310.676 43.552,310.838 43.515,310.400 43.218 C 309.860 42.853,308.032 42.598,308.433 42.944 M311.633 43.744 C 311.725 43.823,312.340 44.008,313.000 44.156 C 313.876 44.352,314.038 44.315,313.600 44.018 C 313.060 43.653,311.232 43.398,311.633 43.744 M314.833 44.544 C 314.925 44.623,315.540 44.808,316.200 44.956 C 317.076 45.152,317.238 45.115,316.800 44.818 C 316.260 44.453,314.432 44.198,314.833 44.544 M319.000 45.600 C 320.101 46.073,320.492 46.073,320.200 45.600 C 320.064 45.380,319.558 45.213,319.076 45.228 C 318.231 45.255,318.229 45.269,319.000 45.600 M325.600 47.200 C 325.930 47.413,326.470 47.588,326.800 47.588 C 327.333 47.588,327.333 47.545,326.800 47.200 C 326.470 46.987,325.930 46.812,325.600 46.812 C 325.067 46.812,325.067 46.855,325.600 47.200 M329.000 48.000 C 329.440 48.189,330.070 48.344,330.400 48.344 C 330.778 48.344,330.704 48.217,330.200 48.000 C 329.760 47.811,329.130 47.656,328.800 47.656 C 328.422 47.656,328.496 47.783,329.000 48.000 M332.200 48.800 C 332.640 48.989,333.270 49.144,333.600 49.144 C 333.978 49.144,333.904 49.017,333.400 48.800 C 332.960 48.611,332.330 48.456,332.000 48.456 C 331.622 48.456,331.696 48.583,332.200 48.800 M338.800 50.400 C 339.130 50.613,339.760 50.778,340.200 50.766 L 341.000 50.744 340.200 50.400 C 339.004 49.886,338.005 49.886,338.800 50.400 M343.396 137.400 C 343.396 184.480,343.443 203.681,343.500 180.068 C 343.557 156.455,343.557 117.935,343.500 94.468 C 343.443 71.001,343.396 90.320,343.396 137.400 M269.345 87.906 C 269.095 88.068,270.535 88.214,272.545 88.231 C 274.778 88.250,275.733 88.152,275.000 87.978 C 273.361 87.591,269.902 87.547,269.345 87.906 M278.200 88.800 C 278.640 88.989,279.540 89.135,280.200 89.125 L 281.400 89.105 280.200 88.800 C 279.540 88.632,278.640 88.486,278.200 88.475 L 277.400 88.456 278.200 88.800 M265.729 90.100 C 265.284 90.595,264.776 91.270,264.601 91.600 C 264.263 92.237,264.355 92.150,265.976 90.300 C 266.506 89.695,266.849 89.200,266.739 89.200 C 266.629 89.200,266.175 89.605,265.729 90.100 M283.600 89.600 C 284.150 89.776,285.230 89.917,286.000 89.914 L 287.400 89.908 285.800 89.577 C 283.663 89.135,282.196 89.150,283.600 89.600 M289.600 90.400 C 290.150 90.576,291.050 90.717,291.600 90.713 C 292.498 90.706,292.478 90.674,291.400 90.400 C 289.708 89.969,288.256 89.969,289.600 90.400 M298.181 93.129 C 299.051 94.048,299.817 94.800,299.885 94.800 C 300.246 94.800,298.932 93.269,297.851 92.429 C 296.803 91.616,296.856 91.729,298.181 93.129 M263.800 93.600 C 263.648 94.291,263.607 94.941,263.709 95.042 C 263.811 95.144,264.009 94.653,264.150 93.950 C 264.483 92.283,264.160 91.960,263.800 93.600 M300.991 132.600 C 300.991 151.740,301.040 159.629,301.100 150.130 C 301.160 140.632,301.160 124.972,301.100 115.330 C 301.040 105.689,300.991 113.460,300.991 132.600 M263.668 166.200 C 263.662 166.640,263.811 167.360,264.000 167.800 C 264.438 168.819,264.438 167.768,264.000 166.400 C 263.743 165.596,263.677 165.557,263.668 166.200 M300.055 169.399 C 299.781 170.157,298.891 171.341,298.078 172.030 C 297.265 172.719,296.986 173.088,297.457 172.850 C 298.517 172.315,300.255 170.288,300.609 169.172 C 301.061 167.747,300.581 167.944,300.055 169.399 M264.712 169.400 C 265.556 171.028,268.073 172.816,269.474 172.782 C 269.873 172.773,269.480 172.512,268.600 172.203 C 267.720 171.894,266.392 170.957,265.649 170.121 C 264.906 169.284,264.484 168.960,264.712 169.400 M271.105 173.083 C 271.602 173.179,272.322 173.175,272.705 173.075 C 273.087 172.975,272.680 172.896,271.800 172.901 C 270.920 172.905,270.607 172.987,271.105 173.083 M275.633 173.344 C 275.725 173.424,278.860 173.577,282.600 173.684 C 286.416 173.794,288.259 173.751,286.800 173.586 C 284.095 173.282,275.342 173.092,275.633 173.344 M294.600 173.600 C 294.096 173.817,294.022 173.944,294.400 173.944 C 294.730 173.944,295.360 173.789,295.800 173.600 C 296.304 173.383,296.378 173.256,296.000 173.256 C 295.670 173.256,295.040 173.411,294.600 173.600 M331.400 224.000 L 327.800 224.249 331.200 224.278 C 333.070 224.294,335.770 224.175,337.200 224.014 L 339.800 223.722 337.400 223.737 C 336.080 223.745,333.380 223.863,331.400 224.000 M314.200 224.800 L 309.800 225.042 313.800 225.071 C 316.000 225.087,319.060 224.971,320.600 224.813 L 323.400 224.526 321.000 224.542 C 319.680 224.551,316.620 224.667,314.200 224.800 M297.800 225.600 L 293.800 225.845 297.800 225.883 C 300.000 225.904,302.790 225.784,304.000 225.617 L 306.200 225.313 304.000 225.334 C 302.790 225.345,300.000 225.465,297.800 225.600 M281.600 226.400 L 277.400 226.643 281.600 226.687 C 283.910 226.710,286.700 226.590,287.800 226.418 L 289.800 226.107 287.800 226.132 C 286.700 226.145,283.910 226.266,281.600 226.400 M269.600 227.213 C 268.954 227.429,269.380 227.466,270.800 227.319 C 272.010 227.194,273.075 227.026,273.167 226.946 C 273.487 226.665,270.591 226.883,269.600 227.213 M265.728 229.302 C 264.346 230.837,264.184 231.476,265.540 230.045 C 266.246 229.300,266.759 228.626,266.680 228.547 C 266.601 228.468,266.173 228.807,265.728 229.302 M263.800 232.800 C 263.648 233.491,263.607 234.141,263.709 234.242 C 263.811 234.344,264.009 233.853,264.150 233.150 C 264.291 232.447,264.331 231.798,264.241 231.708 C 264.150 231.617,263.952 232.109,263.800 232.800 M263.200 367.475 C 263.200 367.700,262.615 368.087,261.900 368.335 C 260.618 368.779,260.616 368.782,261.800 368.564 C 263.129 368.320,263.894 367.760,263.473 367.340 C 263.323 367.190,263.200 367.251,263.200 367.475 M258.000 369.200 C 257.467 369.545,257.467 369.588,258.000 369.588 C 258.330 369.588,258.870 369.413,259.200 369.200 C 259.733 368.855,259.733 368.812,259.200 368.812 C 258.870 368.812,258.330 368.987,258.000 369.200 M251.400 370.800 C 250.896 371.017,250.822 371.144,251.200 371.144 C 251.530 371.144,252.160 370.989,252.600 370.800 C 253.104 370.583,253.178 370.456,252.800 370.456 C 252.470 370.456,251.840 370.611,251.400 370.800 M241.600 373.200 C 240.776 373.464,240.741 373.526,241.400 373.554 C 241.840 373.573,242.470 373.413,242.800 373.200 C 243.501 372.747,243.014 372.747,241.600 373.200 M238.200 374.000 C 237.429 374.331,237.431 374.345,238.276 374.372 C 238.758 374.387,239.264 374.220,239.400 374.000 C 239.692 373.527,239.301 373.527,238.200 374.000 M234.800 374.800 C 233.996 375.057,233.957 375.123,234.600 375.132 C 235.040 375.138,235.760 374.989,236.200 374.800 C 237.219 374.362,236.168 374.362,234.800 374.800 M231.600 375.600 C 230.776 375.864,230.741 375.926,231.400 375.954 C 231.840 375.973,232.470 375.813,232.800 375.600 C 233.501 375.147,233.014 375.147,231.600 375.600 M228.400 376.400 C 227.576 376.664,227.541 376.726,228.200 376.754 C 228.640 376.773,229.270 376.613,229.600 376.400 C 230.301 375.947,229.814 375.947,228.400 376.400 M221.600 378.000 C 220.796 378.257,220.757 378.323,221.400 378.332 C 221.840 378.338,222.560 378.189,223.000 378.000 C 224.019 377.562,222.968 377.562,221.600 378.000 M218.600 378.800 C 217.493 379.082,217.477 379.109,218.400 379.147 C 218.950 379.169,219.670 379.013,220.000 378.800 C 220.681 378.360,220.329 378.360,218.600 378.800 M215.000 379.600 C 213.893 379.882,213.877 379.909,214.800 379.947 C 215.350 379.969,216.070 379.813,216.400 379.600 C 217.081 379.160,216.729 379.160,215.000 379.600 M206.600 381.600 C 205.581 382.038,206.632 382.038,208.000 381.600 C 208.804 381.343,208.843 381.277,208.200 381.268 C 207.760 381.262,207.040 381.411,206.600 381.600 " stroke="none" fill="#676504" fill-rule="evenodd"></path><path id="path4" d="M205.467 18.667 C 205.100 19.033,205.140 380.890,205.506 381.445 C 205.685 381.716,206.113 381.767,206.600 381.574 C 207.358 381.273,207.353 381.255,206.500 381.228 L 205.600 381.200 205.600 200.029 C 205.600 27.822,205.635 18.850,206.300 18.676 C 206.861 18.529,206.874 18.484,206.367 18.446 C 206.018 18.421,205.613 18.520,205.467 18.667 M208.600 19.200 C 209.796 19.714,210.795 19.714,210.000 19.200 C 209.670 18.987,209.040 18.822,208.600 18.834 L 207.800 18.856 208.600 19.200 M211.800 20.000 C 212.240 20.189,212.870 20.344,213.200 20.344 C 213.578 20.344,213.504 20.217,213.000 20.000 C 212.560 19.811,211.930 19.656,211.600 19.656 C 211.222 19.656,211.296 19.783,211.800 20.000 M215.000 20.800 C 215.440 20.989,216.160 21.144,216.600 21.144 L 217.400 21.144 216.600 20.800 C 216.160 20.611,215.440 20.456,215.000 20.456 L 214.200 20.456 215.000 20.800 M218.400 21.600 C 218.730 21.813,219.360 21.978,219.800 21.966 L 220.600 21.944 219.800 21.600 C 218.604 21.086,217.605 21.086,218.400 21.600 M221.600 22.400 C 221.930 22.613,222.560 22.778,223.000 22.766 L 223.800 22.744 223.000 22.400 C 221.804 21.886,220.805 21.886,221.600 22.400 M225.200 23.200 C 225.530 23.413,226.160 23.578,226.600 23.566 L 227.400 23.544 226.600 23.200 C 225.404 22.686,224.405 22.686,225.200 23.200 M228.400 24.000 C 228.730 24.213,229.360 24.378,229.800 24.366 L 230.600 24.344 229.800 24.000 C 228.604 23.486,227.605 23.486,228.400 24.000 M231.600 24.800 C 231.930 25.013,232.650 25.173,233.200 25.154 L 234.200 25.120 233.200 24.800 C 231.658 24.306,230.836 24.306,231.600 24.800 M235.200 25.582 C 235.530 25.805,236.145 25.991,236.567 25.994 C 237.590 26.002,237.271 25.773,235.800 25.444 C 234.924 25.248,234.762 25.285,235.200 25.582 M238.400 26.382 C 238.730 26.605,239.345 26.791,239.767 26.794 C 240.790 26.802,240.471 26.573,239.000 26.244 C 238.124 26.048,237.962 26.085,238.400 26.382 M241.600 27.194 C 241.930 27.411,242.635 27.591,243.167 27.594 C 244.451 27.602,244.125 27.375,242.400 27.058 C 241.415 26.877,241.178 26.918,241.600 27.194 M244.800 28.000 C 245.130 28.213,245.850 28.373,246.400 28.354 L 247.400 28.320 246.400 28.000 C 244.858 27.506,244.036 27.506,244.800 28.000 M248.000 28.794 C 248.330 29.011,249.035 29.191,249.567 29.194 C 250.851 29.202,250.525 28.975,248.800 28.658 C 247.815 28.477,247.578 28.518,248.000 28.794 M250.833 29.365 C 251.120 29.651,258.081 31.253,258.259 31.074 C 258.352 30.981,256.814 30.522,254.840 30.053 C 251.182 29.183,250.539 29.073,250.833 29.365 M263.200 32.433 C 265.730 33.067,267.965 33.534,268.167 33.471 C 268.627 33.326,260.017 31.184,259.200 31.240 C 258.870 31.262,260.670 31.799,263.200 32.433 M269.600 34.000 C 270.968 34.438,272.019 34.438,271.000 34.000 C 270.560 33.811,269.840 33.662,269.400 33.668 C 268.757 33.677,268.796 33.743,269.600 34.000 M273.000 34.800 C 274.196 35.314,275.195 35.314,274.400 34.800 C 274.070 34.587,273.440 34.422,273.000 34.434 L 272.200 34.456 273.000 34.800 M276.200 35.600 C 276.640 35.789,277.360 35.944,277.800 35.944 L 278.600 35.944 277.800 35.600 C 277.360 35.411,276.640 35.256,276.200 35.256 L 275.400 35.256 276.200 35.600 M279.600 36.400 C 279.930 36.613,280.560 36.778,281.000 36.766 L 281.800 36.744 281.000 36.400 C 279.804 35.886,278.805 35.886,279.600 36.400 M282.800 37.200 C 283.130 37.413,283.760 37.578,284.200 37.566 L 285.000 37.544 284.200 37.200 C 283.004 36.686,282.005 36.686,282.800 37.200 M286.200 38.000 C 286.640 38.189,287.270 38.344,287.600 38.344 C 287.978 38.344,287.904 38.217,287.400 38.000 C 286.960 37.811,286.330 37.656,286.000 37.656 C 285.622 37.656,285.696 37.783,286.200 38.000 M289.600 38.782 C 289.930 39.005,290.545 39.191,290.967 39.194 C 291.990 39.202,291.671 38.973,290.200 38.644 C 289.324 38.448,289.162 38.485,289.600 38.782 M292.800 39.600 C 293.130 39.813,293.760 39.978,294.200 39.966 L 295.000 39.944 294.200 39.600 C 293.004 39.086,292.005 39.086,292.800 39.600 M296.000 40.400 C 296.330 40.613,296.960 40.778,297.400 40.766 L 298.200 40.744 297.400 40.400 C 296.204 39.886,295.205 39.886,296.000 40.400 M299.200 41.200 C 299.530 41.413,300.160 41.578,300.600 41.566 L 301.400 41.544 300.600 41.200 C 299.404 40.686,298.405 40.686,299.200 41.200 M302.800 41.982 C 303.130 42.205,303.745 42.391,304.167 42.394 C 305.190 42.402,304.871 42.173,303.400 41.844 C 302.524 41.648,302.362 41.685,302.800 41.982 M306.000 42.794 C 306.330 43.011,307.035 43.191,307.567 43.194 C 308.851 43.202,308.525 42.975,306.800 42.658 C 305.815 42.477,305.578 42.518,306.000 42.794 M309.400 43.600 C 309.840 43.789,310.560 43.938,311.000 43.932 C 311.643 43.923,311.604 43.857,310.800 43.600 C 309.432 43.162,308.381 43.162,309.400 43.600 M312.400 44.400 C 312.730 44.613,313.450 44.773,314.000 44.754 L 315.000 44.720 314.000 44.400 C 312.458 43.906,311.636 43.906,312.400 44.400 M315.600 45.179 C 315.930 45.404,316.725 45.591,317.367 45.594 C 318.904 45.602,318.584 45.370,316.600 45.038 C 315.454 44.846,315.170 44.886,315.600 45.179 M319.400 45.976 C 319.840 46.159,321.190 46.522,322.400 46.784 C 323.610 47.045,325.050 47.412,325.600 47.599 C 326.962 48.063,329.855 48.527,329.567 48.236 C 329.439 48.107,328.539 47.838,327.567 47.638 C 326.595 47.439,324.810 47.011,323.600 46.689 C 320.808 45.944,318.293 45.517,319.400 45.976 M330.800 48.800 C 332.168 49.238,333.219 49.238,332.200 48.800 C 331.760 48.611,331.040 48.462,330.600 48.468 C 329.957 48.477,329.996 48.543,330.800 48.800 M334.000 49.600 C 335.542 50.094,336.364 50.094,335.600 49.600 C 335.270 49.387,334.550 49.227,334.000 49.246 L 333.000 49.280 334.000 49.600 M337.400 50.400 C 338.596 50.914,339.595 50.914,338.800 50.400 C 338.470 50.187,337.840 50.022,337.400 50.034 L 336.600 50.056 337.400 50.400 M340.600 51.200 C 341.796 51.714,342.795 51.714,342.000 51.200 C 341.670 50.987,341.040 50.822,340.600 50.834 L 339.800 50.856 340.600 51.200 M342.899 137.300 L 342.800 223.200 338.700 223.250 C 336.445 223.277,333.340 223.436,331.800 223.603 C 330.109 223.786,331.692 223.826,335.800 223.705 C 339.540 223.595,342.735 223.382,342.901 223.231 C 343.066 223.081,343.156 184.358,343.100 137.179 L 342.998 51.400 342.899 137.300 M270.700 87.482 C 271.195 87.578,272.005 87.578,272.500 87.482 C 272.995 87.387,272.590 87.309,271.600 87.309 C 270.610 87.309,270.205 87.387,270.700 87.482 M267.742 88.239 C 267.050 88.580,266.060 89.341,265.542 89.930 L 264.600 91.000 265.623 90.103 C 266.185 89.609,267.355 88.852,268.223 88.419 C 269.090 87.986,269.620 87.629,269.400 87.625 C 269.180 87.621,268.434 87.897,267.742 88.239 M277.800 88.421 C 282.103 89.110,286.144 89.590,286.305 89.429 C 286.397 89.336,285.602 89.151,284.537 89.017 C 283.471 88.883,281.625 88.600,280.433 88.387 C 279.242 88.174,277.712 88.022,277.033 88.050 C 276.144 88.086,276.358 88.189,277.800 88.421 M287.233 89.744 C 287.325 89.824,288.480 89.995,289.800 90.124 C 291.324 90.274,291.908 90.231,291.400 90.008 C 290.643 89.675,286.879 89.437,287.233 89.744 M293.800 90.791 C 295.907 91.174,297.311 91.770,297.965 92.558 C 298.258 92.911,298.683 93.200,298.910 93.200 C 299.586 93.200,297.506 91.574,296.051 90.965 C 295.309 90.654,294.139 90.423,293.451 90.450 C 292.301 90.496,292.329 90.524,293.800 90.791 M263.467 93.067 C 263.096 93.437,263.129 167.509,263.500 167.738 C 263.665 167.840,263.800 151.021,263.800 130.362 C 263.800 109.703,263.785 92.800,263.767 92.800 C 263.748 92.800,263.613 92.920,263.467 93.067 M301.000 132.600 C 301.000 152.494,301.122 168.462,301.272 168.085 C 301.627 167.190,301.627 98.010,301.272 97.115 C 301.122 96.738,301.000 112.706,301.000 132.600 M300.400 169.519 C 300.400 169.768,299.822 170.653,299.115 171.486 C 297.963 172.843,297.946 172.896,298.951 172.000 C 300.217 170.872,300.980 169.646,300.632 169.299 C 300.505 169.171,300.400 169.270,300.400 169.519 M269.658 173.244 C 269.956 173.433,271.460 173.576,273.000 173.562 C 276.415 173.531,276.013 173.326,272.058 173.082 C 270.339 172.976,269.341 173.044,269.658 173.244 M281.600 173.998 C 283.819 174.324,291.876 174.528,291.567 174.250 C 291.475 174.168,288.700 174.005,285.400 173.887 C 281.653 173.754,280.226 173.796,281.600 173.998 M294.200 174.000 C 293.093 174.282,293.077 174.309,294.000 174.347 C 294.550 174.369,295.270 174.213,295.600 174.000 C 296.281 173.560,295.929 173.560,294.200 174.000 M315.600 224.402 C 314.390 224.552,316.640 224.588,320.600 224.482 C 324.560 224.376,327.875 224.224,327.967 224.144 C 328.250 223.899,317.930 224.114,315.600 224.402 M298.800 225.205 C 297.810 225.361,299.880 225.399,303.400 225.289 C 306.920 225.179,309.875 225.024,309.967 224.945 C 310.263 224.687,300.657 224.911,298.800 225.205 M282.600 226.008 C 281.500 226.164,283.570 226.201,287.200 226.091 C 290.830 225.980,293.875 225.825,293.967 225.745 C 294.257 225.492,284.686 225.713,282.600 226.008 M269.701 226.729 C 269.426 226.904,270.866 226.981,272.901 226.901 C 278.034 226.699,278.521 226.500,274.000 226.453 C 271.910 226.430,269.975 226.555,269.701 226.729 M266.343 228.500 C 265.579 229.215,265.324 229.507,265.777 229.149 C 266.230 228.790,267.140 228.213,267.800 227.865 C 268.474 227.509,268.722 227.225,268.367 227.216 C 268.018 227.207,267.108 227.785,266.343 228.500 M263.449 232.615 C 263.312 232.973,263.244 263.446,263.298 300.333 L 263.395 367.400 263.598 299.800 C 263.814 227.677,263.822 231.644,263.449 232.615 M260.000 368.400 C 259.196 368.657,259.157 368.723,259.800 368.732 C 260.240 368.738,260.960 368.589,261.400 368.400 C 262.419 367.962,261.368 367.962,260.000 368.400 M255.000 369.587 C 253.460 369.983,252.506 370.329,252.880 370.354 C 253.644 370.406,258.008 369.326,258.327 369.006 C 258.637 368.697,258.072 368.795,255.000 369.587 M246.091 371.689 C 243.390 372.363,241.257 372.990,241.349 373.082 C 241.524 373.257,251.674 370.848,251.967 370.563 C 252.317 370.220,250.833 370.505,246.091 371.689 M238.400 373.606 C 237.978 373.882,238.215 373.923,239.200 373.742 C 240.925 373.425,241.251 373.198,239.967 373.206 C 239.435 373.209,238.730 373.389,238.400 373.606 M235.200 374.406 C 234.778 374.682,235.015 374.723,236.000 374.542 C 237.725 374.225,238.051 373.998,236.767 374.006 C 236.235 374.009,235.530 374.189,235.200 374.406 M231.600 375.200 C 230.836 375.694,231.658 375.694,233.200 375.200 L 234.200 374.880 233.200 374.846 C 232.650 374.827,231.930 374.987,231.600 375.200 M228.400 376.000 C 227.636 376.494,228.458 376.494,230.000 376.000 L 231.000 375.680 230.000 375.646 C 229.450 375.627,228.730 375.787,228.400 376.000 M225.200 376.800 C 224.436 377.294,225.258 377.294,226.800 376.800 L 227.800 376.480 226.800 376.446 C 226.250 376.427,225.530 376.587,225.200 376.800 M222.000 377.618 C 221.562 377.915,221.724 377.952,222.600 377.756 C 224.071 377.427,224.390 377.198,223.367 377.206 C 222.945 377.209,222.330 377.395,222.000 377.618 M218.800 378.400 C 218.005 378.914,219.004 378.914,220.200 378.400 L 221.000 378.056 220.200 378.034 C 219.760 378.022,219.130 378.187,218.800 378.400 M215.200 379.200 C 214.436 379.694,215.258 379.694,216.800 379.200 L 217.800 378.880 216.800 378.846 C 216.250 378.827,215.530 378.987,215.200 379.200 M212.000 380.000 C 211.205 380.514,212.204 380.514,213.400 380.000 L 214.200 379.656 213.400 379.634 C 212.960 379.622,212.330 379.787,212.000 380.000 M208.800 380.800 C 208.005 381.314,209.004 381.314,210.200 380.800 L 211.000 380.456 210.200 380.434 C 209.760 380.422,209.130 380.587,208.800 380.800 " stroke="none" fill="#8c8404" fill-rule="evenodd"></path></g></svg>