<?xml version="1.0" standalone="no"?><svg xmlns="http://www.w3.org/2000/svg" viewBox="0 0 1440 320"><path fill="#ECB365" fill-opacity="1" d="M0,96L40,122.7C80,149,160,203,240,218.7C320,235,400,213,480,181.3C560,149,640,107,720,90.7C800,75,880,85,960,112C1040,139,1120,181,1200,176C1280,171,1360,117,1400,90.7L1440,64L1440,320L1400,320C1360,320,1280,320,1200,320C1120,320,1040,320,960,320C880,320,800,320,720,320C640,320,560,320,480,320C400,320,320,320,240,320C160,320,80,320,40,320L0,320Z"></path></svg>